<?xml version="1.0" encoding="UTF-8" standalone="no"?><!DOCTYPE svg PUBLIC "-//W3C//DTD SVG 1.1//EN" "http://www.w3.org/Graphics/SVG/1.1/DTD/svg11.dtd"><svg width="100%" height="100%" viewBox="0 0 13634 2084" version="1.1" xmlns="http://www.w3.org/2000/svg" xmlns:xlink="http://www.w3.org/1999/xlink" xml:space="preserve" xmlns:serif="http://www.serif.com/" style="fill-rule:evenodd;clip-rule:evenodd;stroke-linejoin:round;stroke-miterlimit:2;"><rect id="flowpipe" x="0" y="0" width="13633.5" height="2083.33" style="fill:none;"/><g id="Wordmark"><path id="E" d="M10941.8,911.381l-0,-58.249c-0,-23.348 19.081,-42.376 42.482,-42.376l543.562,-0c23.402,-0 42.483,19.028 42.483,42.376l0,15.866c0,23.362 -19.081,42.383 -42.483,42.383l-586.044,0Zm-23.546,656.149l883.208,-0l-0,-277.74l-817.18,0c-23.329,0 -42.482,-19.028 -42.482,-42.376l-0,-58.271l652.073,-0c140.336,-0 254.751,-114.222 254.751,-254.278l0,-147.593c0,-140.063 -114.415,-254.278 -254.751,-254.278l-675.619,0c-140.336,0 -254.824,114.215 -254.824,254.278l0,525.995c0,140.063 114.488,254.263 254.824,254.263" style="fill:#222017;"/><path id="P" d="M9604.93,1295.7l586.117,0c23.329,0 42.483,-19.05 42.483,-42.369l-0,-400.203c-0,-23.319 -19.154,-42.376 -42.483,-42.376l-543.634,-0c-23.33,-0 -42.483,19.057 -42.483,42.376l0,442.572Zm906.897,-508.432l-0,531.916c-0,140.07 -114.487,254.256 -254.824,254.256l-652.073,-0l0,318.377l-278.297,-0l-0,-1104.55c-0,-140.063 114.487,-254.278 254.824,-254.278l675.546,0c140.337,0 254.824,114.215 254.824,254.278Z" style="fill:#222017;"/><rect id="I" x="8899.07" y="532.994" width="278.341" height="1034.79" style="fill:#222017;"/><path id="P1" serif:id="P" d="M7841.9,1295.7l586.117,0c23.329,0 42.482,-19.05 42.482,-42.369l0,-400.203c0,-23.319 -19.153,-42.376 -42.482,-42.376l-543.634,-0c-23.33,-0 -42.483,19.057 -42.483,42.376l-0,442.572Zm906.825,-508.432l-0,531.916c-0,140.07 -114.415,254.256 -254.752,254.256l-652.073,-0l-0,318.377l-278.305,-0l0,-1104.55c0,-140.063 114.473,-254.278 254.832,-254.278l675.546,0c140.337,0 254.752,114.215 254.752,254.278Z" style="fill:#222017;"/><path id="W" d="M7148.27,1567.77l-948.976,0c-140.337,0 -254.802,-114.222 -254.802,-254.277l-0,-780.51l278.297,0l0,474.888l0.036,0l-0.036,101.359c0,2.407 0,4.786 0.036,7.129l0,131.274c0,23.311 19.096,42.376 42.461,42.376l274.467,-0l-0,-757.026l278.312,0l-0,757.026l264.206,-0c23.38,-0 42.468,-19.065 42.468,-42.376l0,-131.274c0,-2.343 0.043,-4.722 0.043,-7.129l-0.043,-101.359l0.043,0l-0.043,-474.888l278.298,0l-0,780.51c-0,140.055 -114.466,254.277 -254.767,254.277Z" style="fill:#222017;"/><path id="O" d="M4873.08,1295.7l586.103,0c23.315,0 42.468,-19.05 42.468,-42.369l-0,-400.203c-0,-23.319 -19.153,-42.376 -42.468,-42.376l-543.613,-0c-23.351,-0 -42.49,19.057 -42.49,42.376l0,442.572Zm906.861,-508.432l0,531.916c0,140.07 -114.458,254.256 -254.809,254.256l-673.171,0.675c-142.871,0 -257.185,-112.396 -257.185,-254.981l-0,-531.866c-0,-140.063 114.473,-254.278 254.809,-254.278l675.547,0c140.351,0 254.809,114.215 254.809,254.278Z" style="fill:#222017;"/><path id="L" d="M3866.22,1567.53l566.963,-0l2.225,-277.761l-503.196,-0c-23.38,-0 -42.468,-19.087 -42.468,-42.376l1.389,-714.399l-280.486,0l0.756,780.258c0,140.056 114.466,254.278 254.817,254.278" style="fill:#222017;"/><path id="F" d="M2880.57,532.994l566.963,0l2.225,277.762l-503.196,-0c-23.38,-0 -42.469,19.086 -42.469,42.376l0.116,58.673l251.533,-0.632l-0.108,277.718l-250.885,-0.021l0.734,378.66l-280.479,-0l0.749,-780.258c-0,-140.056 114.473,-254.278 254.817,-254.278" style="fill:#222017;"/></g><g id="Logo"><path id="LowerPipe" d="M1307.93,1450.08l-0.035,143.708c0,267.314 -218.494,485.37 -486.318,485.335l-332.307,0.044c-133.701,0.008 -255.305,-54.525 -343.442,-142.485c-0.35,-0.35 414.946,-414.805 415.323,-414.499c22.795,18.242 57.138,27.555 91.76,27.957c61.481,0.708 123.827,-26.69 123.792,-82.08l0.027,-17.98l-0,-153.589l-74.577,-0c-47.902,-0 -86.788,-38.808 -86.788,-86.615l-0,-132.857l854.026,0l0,133.128c0,47.658 -38.772,86.344 -86.517,86.344l-74.944,-0l0,153.589Z" style="fill:#222017;"/><path id="UpperPipe" d="M776.831,787.367l-0,-147.229l-0.525,-0l0.035,-150.584c-0,-267.322 218.494,-485.379 486.318,-485.344l332.307,-0.043c133.701,-0.009 255.305,54.533 343.441,142.493c0.351,0.35 -414.945,414.796 -415.322,414.49c-22.795,-18.242 -57.138,-27.555 -91.76,-27.948c-61.489,-0.717 -123.828,26.681 -123.793,82.071l-0.026,18.504l0.517,0l-0,153.59l74.576,-0c47.903,-0 86.797,38.807 86.797,86.614l0,132.849l-854.026,-0l-0,-133.12c-0,-47.658 38.763,-86.343 86.517,-86.343l74.944,-0Z" style="fill:#4c82e6;"/></g></svg>